# xmcd
#
# Track frame offsets:
#	150
#	30995
#	45685
#	65027
#	74520
#	87285
#	113142
#	125940
#	144390
#	160070
#	169900
#	194537
#	216052
#
# Disc length: 3165 seconds
#
# Revision: 1
# Processed by: cddbd v1.4PL0 Copyright (c) Steve Scherf et al.
# Submitted via: audiograbber 1.81.03
#
DISCID=c20c5b0d
DTITLE=Reverend Charlie Jackson - Way Over Yonder
DYEAR=1997
DGENRE=Blues
TTITLE0=Wrapped Up And Tangled Up In Jesus
TTITLE1=Way Over Yonder
TTITLE2=God's Got It
TTITLE3=Storm Of Life
TTITLE4=Somewhere To Lay My Head
TTITLE5=Power
TTITLE6=Something Got A Hold Of Me
TTITLE7=What A Time
TTITLE8=Gave Up All I Had
TTITLE9=You Got To Move
TTITLE10=Mornin' Train
TTITLE11=Man Over The River
TTITLE12=Holy Ghost Boogie
EXTD=
EXTT0=
EXTT1=
EXTT2=
EXTT3=
EXTT4=
EXTT5=
EXTT6=
EXTT7=
EXTT8=
EXTT9=
EXTT10=
EXTT11=
EXTT12=
PLAYORDER=
